<?xml version="1.0" encoding="UTF-8"?>
<svg xmlns="http://www.w3.org/2000/svg" viewBox="0 0 45 45" width="45" height="45">
    <path d="M 11,37 L 34,37 L 34,40.5 L 11,40.5 Z" fill="#1c1917" stroke="#fdba74" stroke-width="1.5"/>
        <path d="M 13,33 L 32,33 L 32,37 L 13,37 Z" fill="#1c1917" stroke="#fdba74" stroke-width="1.5"/>
        <path d="M 16,33 L 17,17 L 28,17 L 29,33 Z" fill="#1c1917" stroke="#fdba74" stroke-width="1.8"/>
        <path d="M 13,17 L 13,9 L 17,9 L 17,13 L 20.5,13 L 20.5,9 L 24.5,9 L 24.5,13 L 28,13 L 28,9 L 32,9 L 32,17 Z" fill="#1c1917" stroke="#fdba74" stroke-width="1.8"/>
        <rect x="20.5" y="21" width="4" height="6" rx="2" fill="#ea580c" stroke="#fdba74" stroke-width="1"/>
    
    <polygon points="22.5,2 25,6 22.5,10 20,6" fill="#ea580c"/>
</svg>