<svg xmlns="http://www.w3.org/2000/svg" viewBox="0 0 45 45" width="100%" height="100%">
  <g fill="none" fill-rule="evenodd" stroke="#ffffff" stroke-width="2.2" stroke-linecap="round" stroke-linejoin="round">

    <path d="M 9.5,38 L 35.5,38 L 35.5,40.5 L 9.5,40.5 Z" fill="#111827"/>
    <path d="M 11,35.5 L 34,35.5 L 34,38 L 11,38 Z" fill="#111827"/>
    <path d="M 15,35.5 C 15,25 17,20 22.5,20 C 28,20 30,25 30,35.5 Z" fill="#111827"/>
    <circle cx="22.5" cy="14" r="4.5" fill="#111827"/>
    <path d="M 17,14 C 17,8 22.5,6 28,10 L 22.5,12 Z" fill="#111827"/>
    <path d="M 28,10 C 34,14 36,24 30,34" fill="none" stroke="#ffffff" stroke-width="2.2"/>
    <path d="M 28,10 L 30,34" stroke="#ffffff" stroke-width="1.2"/>
    <path d="M 16,22 L 34,22" stroke="#ffffff" stroke-width="2.2"/>
    <path d="M 32,19 L 37,22 L 32,25 Z" fill="#111827"/>

  </g>
</svg>
