<svg xmlns="http://www.w3.org/2000/svg" viewBox="0 0 45 45" width="100%" height="100%">
  <g fill="none" fill-rule="evenodd" stroke="#ffffff" stroke-width="2.2" stroke-linecap="round" stroke-linejoin="round">

    <path d="M 9.5,38 L 35.5,38 L 35.5,40.5 L 9.5,40.5 Z" fill="#111827"/>
    <path d="M 11,35 L 34,35 L 34,38 L 11,38 Z" fill="#111827"/>
    <path d="M 15,35 C 15,26 17,20 22.5,20 C 28,20 30,26 30,35 Z" fill="#111827"/>
    <path d="M 17,20 C 16,13 18,8 22.5,8 C 27,8 29,13 28,20 Z" fill="#111827"/>
    <path d="M 19,16 C 20,18 25,18 26,16" stroke="#ffffff" stroke-width="1.5" fill="none"/>
    <path d="M 11,35 L 11,10 L 13,10 L 13,35 Z" fill="#111827"/>
    <circle cx="12" cy="7" r="3.2" fill="#111827"/>
    <path d="M 12,4 L 12,10 M 9,7 L 15,7" stroke="#ffffff" stroke-width="1"/>
    <path d="M 33,35 L 33,12 L 34.5,7 L 36,12 L 36,35 Z" fill="#111827"/>
    <path d="M 30,24 L 39,24 L 39,26.5 L 30,26.5 Z" fill="#111827"/>

  </g>
</svg>
