<?xml version="1.0" encoding="UTF-8"?>
<svg xmlns="http://www.w3.org/2000/svg" viewBox="0 0 45 45" width="45" height="45">
    <path d="M 11,37 L 34,37 L 34,40.5 L 11,40.5 Z" fill="#1e293b" stroke="#e2e8f0" stroke-width="1.5"/>
        <path d="M 13,34 L 32,34 L 32,37 L 13,37 Z" fill="#1e293b" stroke="#e2e8f0" stroke-width="1.5"/>
        <path d="M 16,34 C 16,25 18,20 22.5,20 C 27,20 29,25 29,34 Z" fill="#1e293b" stroke="#e2e8f0" stroke-width="1.8"/>
        <circle cx="22.5" cy="13" r="4.5" fill="#1e293b" stroke="#e2e8f0" stroke-width="1.8"/>
        <path d="M 14,22 L 26,22 C 26,30 23,34 20,36 C 17,34 14,30 14,22 Z" fill="#b45309" stroke="#e2e8f0" stroke-width="1.5"/>
        <path d="M 28,34 L 28,20 L 29.5,16 L 31,20 L 31,34 Z" fill="#1e293b" stroke="#e2e8f0" stroke-width="1.2"/>
    
    <path d="M 22.5,2 L 24,6 L 22.5,8 L 21,6 Z" fill="#b45309"/>
</svg>