<svg xmlns="http://www.w3.org/2000/svg" viewBox="0 0 45 45" width="100%" height="100%">
  <g fill="none" fill-rule="evenodd" stroke="#111827" stroke-width="2.2" stroke-linecap="round" stroke-linejoin="round">

    <path d="M 9.5,38 L 35.5,38 L 35.5,40.5 L 9.5,40.5 Z" fill="#ffffff"/>
    <path d="M 10.5,35.5 L 34.5,35.5 L 34.5,38 L 10.5,38 Z" fill="#ffffff"/>
    <path d="M 16,35.5 C 16,25 18,20 22.5,20 C 27,20 29,25 29,35.5 Z" fill="#ffffff"/>
    <circle cx="22.5" cy="13" r="4.5" fill="#ffffff"/>
    <path d="M 13,20 L 26,20 L 26,36 L 13,36 Z" fill="#ffffff"/>
    <circle cx="19.5" cy="28" r="2.5" fill="#ffffff"/>
    <path d="M 19.5,20 L 19.5,36 M 13,28 L 26,28" stroke="#111827" stroke-width="1.2"/>
    <path d="M 30,35 L 30,20 L 31.5,16 L 33,20 L 33,35 Z" fill="#ffffff"/>
    <path d="M 28,27 L 35,27 L 35,29 L 28,29 Z" fill="#ffffff"/>

  </g>
</svg>
