<?xml version="1.0" encoding="UTF-8"?>
<svg xmlns="http://www.w3.org/2000/svg" viewBox="0 0 45 45" width="45" height="45">
    <path d="M 11,37 L 34,37 L 34,40.5 L 11,40.5 Z" fill="#022c22" stroke="#4ade80" stroke-width="1.5"/>
        <path d="M 13,34 L 32,34 L 32,37 L 13,37 Z" fill="#022c22" stroke="#4ade80" stroke-width="1.5"/>
        <path d="M 16,34 C 14,26 16,18 22,12 C 28,6 34,8 35,14 C 36,20 32,28 30,34 Z" fill="#022c22" stroke="#4ade80" stroke-width="1.8"/>
        <path d="M 18,17 C 13,15 10,18 7,14 C 10,12 15,13 18,16 Z" fill="#10b981" stroke="#4ade80" stroke-width="1.2"/>
        <path d="M 27,9 L 32,4 L 31,10 L 36,8 L 32,13" fill="#10b981" stroke="#4ade80" stroke-width="1.2"/>
        <circle cx="25" cy="14" r="1.8" fill="#10b981" stroke="#4ade80" stroke-width="0.8"/>
    
    <polygon points="22.5,2 25,4 25,7 22.5,9 20,7 20,4" fill="none" stroke="#10b981" stroke-width="1"/>
</svg>